<svg viewBox="0 0 637.05 78.64" version="1.1" xmlns="http://www.w3.org/2000/svg">
  <g>
    <g id="Layer_1">
      <g>
        <path
          d="M50.76,49.12c3.98-10.09,7.81-19.81,11.61-29.54.34-.88.7-1.35,1.76-1.35,12.08.04,24.16.02,36.24.03.32,0,.65.05,1.09.09v58.8h-25.33v-34.43c-.13-.03-.27-.06-.4-.1-.22.47-.47.92-.66,1.4-4.25,10.64-8.52,21.27-12.72,31.92-.43,1.1-1.02,1.35-2.11,1.35-6.38-.05-12.75-.06-19.13.01-1.31.02-1.82-.49-2.27-1.63-4.22-10.77-8.5-21.51-12.77-32.26-.12-.3-.27-.59-.7-.85v34.56H0V18.43c.37-.05.82-.17,1.27-.17,11.91,0,23.83,0,35.74-.03,1.09,0,1.54.41,1.92,1.37,3.68,9.36,7.4,18.7,11.11,28.05.16.4.37.77.71,1.47Z"></path>
        <path
          d="M505.73,77.16c-8.49,0-16.85,0-25.42,0,0-5.34,0-10.56,0-15.94-3.66,0-7.12.05-10.57-.03-1.19-.03-1.97.38-2.73,1.25-4.01,4.59-8.09,9.12-12.09,13.71-.73.84-1.48,1.16-2.58,1.15-8.67-.04-17.34-.02-26.01-.03-.52,0-1.05-.06-1.92-.11,5.6-5.9,10.95-11.55,16.27-17.17-.13-.21-.15-.29-.19-.3-.49-.11-.97-.23-1.46-.33-6.41-1.3-11.41-4.38-13.21-11.08-1.59-5.91-1.37-11.87.31-17.73,1.72-6.02,5.77-9.8,11.89-11,3.6-.7,7.3-1.17,10.96-1.2,18.51-.13,37.03-.09,55.54-.11.38,0,.76.04,1.21.06,0,19.77,0,39.31,0,58.84ZM480.27,37.13c-.55-.04-1.03-.11-1.52-.11-8.49,0-16.98,0-25.47.01-1.23,0-2.46.09-3.67.26-1.79.25-2.45,1.08-2.51,2.96-.08,2.23.46,3.1,2.27,3.48.81.17,1.66.27,2.49.27,9.11.03,18.21.04,27.32.04.32,0,.64-.06,1.1-.1v-6.82Z"></path>
        <path
          d="M480.72,18.25c.68,0,1.28,0,1.89,0,16.83,0,33.66-.08,50.49.05,4.95.04,9.96.33,14.83,1.16,7.54,1.28,11.7,6.28,13.09,13.66.82,4.38.94,8.79.14,13.18-1.29,7.15-5.77,11.23-12.71,12.81-.86.2-1.72.37-2.94.64,5.56,5.85,10.94,11.51,16.56,17.41-.86.05-1.34.1-1.81.1-8.72,0-17.44-.01-26.17.03-1.1,0-1.84-.32-2.58-1.16-4.04-4.64-8.11-9.24-12.26-13.78-.55-.6-1.57-1.07-2.38-1.09-3.5-.12-7.01-.05-10.71-.05v15.96h-25.42V18.25ZM506.24,43.97c.47.03.85.07,1.23.07,8.78,0,17.55,0,26.33-.02.95,0,1.91-.04,2.84-.2,2.08-.35,2.72-1.19,2.7-3.33-.02-2.13-.72-2.99-2.78-3.25-1.16-.15-2.34-.22-3.51-.22-8.44-.02-16.88-.02-25.32-.01-.48,0-.97.06-1.48.1v6.86Z"></path>
        <path
          d="M637.05,18.29v18.16h-40.99v5.21h40.94v12.06h-40.96v5.11h40.94v18.3h-66.49V18.29h66.57Z"></path>
        <path
          d="M107.43,18.35h25.31v2.06c0,8.67-.01,17.33.01,26,0,1.45.08,2.91.23,4.35.52,5.25,4.27,8.88,9.52,9.02,4.75.13,9.51.14,14.26,0,5.89-.17,9.64-4.5,9.72-11.24.1-9.34.04-18.68.04-28.01,0-.67,0-1.33,0-2.13h25.23c.06.28.16.55.15.81-.05,10.79.29,21.6-.28,32.37-.55,10.42-5.43,18.65-14.95,23.66-3.91,2.06-8.13,3.24-12.54,3.29-9.67.1-19.35.25-29.02-.02-15.06-.42-26.81-11.65-27.55-26.71-.54-10.88-.22-21.8-.27-32.7,0-.21.08-.42.15-.73Z"></path>
        <path
          d="M421.47,77.28c-5.53,0-10.72,0-15.92,0-3.08,0-6.15-.04-9.23.02-1.05.02-1.61-.33-2.06-1.27-.98-2.07-2.02-4.12-3.16-6.1-.29-.5-1.04-1.03-1.58-1.03-9.56-.06-19.12-.06-28.68,0-.54,0-1.29.56-1.58,1.07-1.17,2.03-2.16,4.17-3.31,6.21-.27.48-.95,1.05-1.44,1.05-8.27.06-16.55.04-24.83.03-.15,0-.3-.09-.65-.2,1.47-2.88,2.9-5.7,4.34-8.52,8.19-16.02,16.4-32.03,24.53-48.08.84-1.67,1.76-2.29,3.68-2.26,9.34.12,18.67.08,28.01.02,1.23,0,1.89.35,2.45,1.46,7.22,14.19,14.49,28.36,21.75,42.53,2.27,4.42,4.54,8.85,6.81,13.27.25.48.47.98.86,1.79ZM383.2,51.73c-2.65-5.8-5.22-11.41-7.96-17.4-2.75,6.02-5.32,11.63-7.97,17.4h15.93Z"></path>
        <path d="M228.1,77.16v-39.45h-30.37v-19.32h86.36v19.14h-30.43v39.63h-25.56Z"></path>
        <path d="M310.15,77.18h-25.49v-39.55h-30.42v-19.27h86.39v19.19h-30.48v39.63Z"></path>
        <path
          d="M616.94.03c-3.29,3.86-6.25,7.33-9.21,10.81-.4.47-.9.88-1.18,1.41-2.01,3.76-5.34,3.78-9.09,3.2.25-.74.48-1.45.73-2.16,1.44-3.94,2.92-7.86,4.3-11.81.4-1.15,1.02-1.5,2.2-1.48,3.9.07,7.81.03,12.23.03Z"></path>
      </g>
    </g>
  </g>
</svg>